<svg viewBox="0 0 48 48" xmlns="http://www.w3.org/2000/svg"><rect width="48" height="48" rx="24" fill="#3316E9"/><path d="M22.276 16.13h.897a.21.21 0 01.146.057c.039.036.06.086.06.137v16.482a.189.189 0 01-.06.138.213.213 0 01-.146.057h-.897a9.426 9.426 0 01-3.425-.642 9.003 9.003 0 01-2.904-1.83 8.418 8.418 0 01-1.94-2.737 8.014 8.014 0 01-.68-3.229c0-2.236.943-4.381 2.621-5.963 1.679-1.582 3.955-2.47 6.328-2.47zm10.684.001h-7.115c-.116 0-.21.09-.21.199v6.987c0 .11.094.199.21.199h7.116c.116 0 .21-.09.21-.199V16.33a.205.205 0 00-.21-.199zm0 9.423h-7.115c-.116 0-.21.09-.21.199v7.044c0 .11.094.198.21.198h7.116c.116 0 .21-.089.21-.198v-7.044a.205.205 0 00-.21-.199z" fill="#F2F2F2"/></svg>