<?xml version="1.0" standalone="no"?>
<!DOCTYPE svg PUBLIC "-//W3C//DTD SVG 20010904//EN"
 "http://www.w3.org/TR/2001/REC-SVG-20010904/DTD/svg10.dtd">
<svg version="1.0" xmlns="http://www.w3.org/2000/svg"
 width="422.000000pt" height="422.000000pt" viewBox="0 0 422.000000 422.000000"
 preserveAspectRatio="xMidYMid meet">
<g transform="translate(0.000000,422.000000) scale(0.100000,-0.100000)"
fill="#000000" stroke="none">
<path d="M2145 3978 c-16 -5 -39 -14 -50 -19 -11 -5 -32 -11 -47 -13 -15 -3
-32 -7 -38 -11 -11 -7 -193 -63 -227 -71 -12 -2 -35 -9 -50 -16 -16 -6 -31
-10 -36 -10 -4 1 -24 -5 -44 -13 -20 -8 -50 -18 -67 -21 -17 -3 -34 -10 -38
-17 -4 -7 -8 -9 -8 -5 0 3 -21 -1 -47 -9 -27 -8 -59 -17 -73 -19 -14 -3 -26
-9 -28 -14 -2 -5 -10 -6 -18 -3 -8 3 -21 0 -29 -7 -8 -7 -15 -9 -15 -6 0 4 -9
2 -21 -4 -11 -6 -28 -13 -38 -15 -10 -2 -51 -13 -92 -26 -41 -12 -78 -24 -84
-25 -5 -2 -41 -12 -80 -24 -38 -12 -82 -24 -98 -27 -15 -3 -27 -10 -27 -16 0
-6 -3 -8 -6 -4 -3 3 -26 -1 -52 -8 -25 -8 -49 -12 -54 -9 -4 3 -8 1 -8 -4 0
-8 -69 -31 -95 -33 -3 0 -24 -7 -47 -15 -24 -9 -47 -17 -53 -18 -5 -2 -30 -9
-55 -16 -25 -7 -49 -14 -55 -16 -5 -1 -35 -9 -65 -18 -30 -9 -58 -16 -63 -16
-4 0 -21 -7 -37 -15 l-30 -16 -1 -102 c-3 -545 0 -892 8 -894 69 -23 165 -111
180 -164 4 -13 9 -182 10 -375 l4 -352 27 -11 c15 -6 36 -12 47 -14 11 -2 30
-9 43 -15 12 -7 22 -10 22 -7 0 3 16 -1 36 -10 19 -8 38 -14 42 -13 4 1 14 -1
22 -4 25 -10 134 -42 148 -44 8 -1 21 -6 30 -10 9 -4 19 -8 22 -9 58 -17 87
-25 96 -25 8 0 11 19 9 58 -1 31 2 63 8 70 6 7 6 12 0 12 -13 0 -13 32 0 48 5
6 6 12 1 12 -7 0 -9 140 -4 245 4 82 -9 275 -20 295 -8 14 -13 28 -12 33 1 4
-2 7 -8 7 -5 0 -10 8 -10 17 0 9 -3 13 -7 10 -12 -12 -32 27 -21 41 9 10 15 9
30 -5 11 -10 21 -16 22 -14 0 2 17 -1 36 -7 19 -5 62 -18 95 -27 33 -9 67 -20
75 -23 13 -4 32 -9 65 -16 6 -1 15 -4 20 -7 6 -3 30 -11 55 -18 25 -8 52 -16
60 -19 25 -9 110 -34 125 -36 6 -1 16 -5 22 -9 13 -8 42 -16 79 -22 12 -2 30
-7 40 -13 19 -10 124 -41 154 -46 8 -1 25 -8 38 -14 12 -7 22 -11 22 -8 0 3
16 -2 35 -10 19 -8 35 -11 35 -8 0 4 7 1 15 -6 8 -6 19 -9 24 -6 5 4 12 2 16
-4 3 -5 15 -10 26 -10 10 0 19 -5 19 -11 0 -5 4 -8 8 -5 5 3 31 -2 58 -10 27
-9 56 -17 64 -19 8 -2 15 -4 15 -5 0 -2 20 -7 45 -12 8 -2 20 -7 27 -11 6 -4
23 -8 37 -9 14 -1 26 -6 26 -10 0 -4 3 -7 8 -6 4 1 27 -4 52 -11 25 -7 50 -14
55 -16 6 -1 17 -5 25 -8 33 -12 166 -51 177 -52 6 0 15 -4 19 -8 4 -4 17 -7
29 -7 12 0 25 -3 29 -7 4 -5 11 -8 14 -9 16 -1 99 -26 127 -37 17 -6 36 -10
43 -9 8 2 19 -1 25 -6 9 -7 77 -29 117 -38 3 0 12 -3 20 -7 14 -5 89 -30 100
-32 50 -13 67 -18 80 -22 8 -4 18 -7 23 -8 4 -2 8 -3 10 -5 2 -2 17 -5 55 -14
12 -3 27 -8 32 -11 5 -3 20 -8 32 -10 20 -4 106 -30 138 -42 8 -3 22 -7 30 -9
34 -6 46 -10 58 -17 7 -5 25 -10 40 -13 15 -3 43 -11 62 -18 19 -8 37 -14 40
-14 7 -1 42 -12 68 -23 13 -5 32 -9 42 -9 11 0 20 -5 20 -12 0 -6 3 -8 6 -5 4
3 15 2 25 -4 21 -11 20 -16 23 111 0 41 4 80 9 87 4 6 3 14 -1 17 -5 3 -9 66
-8 141 1 102 -2 135 -11 135 -7 0 -13 5 -13 10 0 6 -7 10 -15 10 -20 0 -96 55
-88 64 3 3 -1 6 -11 6 -9 0 -14 5 -11 10 3 6 1 10 -4 10 -6 0 -11 7 -11 15 0
8 -4 15 -9 15 -19 0 -24 82 -27 430 -1 201 -5 372 -9 382 -5 14 -21 20 -93 34
-8 1 -21 6 -30 10 -21 9 -42 15 -64 18 -10 1 -21 5 -24 9 -4 4 -16 7 -26 7
-10 0 -18 4 -18 8 0 4 -8 8 -17 9 -41 3 -63 8 -63 13 0 4 -6 7 -12 8 -15 1
-37 7 -58 15 -77 28 -130 41 -131 30 -7 -45 -3 -771 4 -780 5 -7 6 -13 3 -13
-8 0 35 -82 48 -91 13 -10 -17 -17 -39 -8 -42 16 -161 49 -176 49 -8 0 -20 5
-27 12 -7 7 -12 9 -12 5 0 -4 -17 -1 -37 7 -21 8 -60 20 -88 27 -27 6 -56 16
-62 22 -7 5 -13 7 -13 4 0 -3 -33 5 -72 19 -40 13 -75 25 -78 26 -3 0 -9 2
-15 4 -5 1 -44 12 -85 24 -41 12 -85 26 -98 31 -13 5 -27 7 -32 4 -5 -3 -10
-2 -12 3 -3 7 -99 39 -143 47 -11 2 -37 10 -57 19 -21 9 -38 14 -38 12 0 -3
-16 2 -35 10 -19 8 -35 11 -35 8 0 -4 -9 1 -20 11 -12 11 -20 13 -20 6 0 -7
-5 -9 -12 -4 -7 4 -15 8 -18 9 -3 0 -12 3 -20 6 -35 14 -211 68 -219 68 -5 0
-22 5 -38 12 -15 6 -32 12 -38 13 -5 1 -13 3 -17 5 -5 1 -11 3 -15 4 -11 2
-95 27 -113 34 -8 3 -19 6 -25 7 -5 0 -16 4 -22 8 -7 5 -13 6 -13 3 0 -2 -24
4 -52 15 -29 10 -61 19 -70 19 -10 0 -18 4 -18 8 0 4 -8 8 -17 9 -21 2 -41 7
-65 17 -9 4 -22 8 -30 10 -7 1 -19 5 -25 9 -7 5 -13 6 -13 3 0 -3 -22 3 -50
14 -27 11 -50 18 -50 15 0 -2 -17 3 -38 12 -20 8 -39 15 -42 14 -7 -1 -40 8
-65 19 -11 4 -40 14 -65 21 -25 7 -47 13 -50 14 -3 1 -18 5 -35 9 -16 5 -50
15 -75 23 -25 8 -52 16 -61 18 -16 3 -116 35 -313 100 -95 31 -130 57 -82 62
24 3 45 7 66 16 41 16 150 44 150 39 0 -4 4 -1 8 5 4 7 19 15 32 17 14 2 25 5
25 6 0 1 13 4 30 6 16 3 32 9 35 12 3 4 12 7 20 7 8 0 17 2 20 5 4 6 98 35
143 45 9 2 22 7 27 10 5 3 18 8 27 10 29 6 122 32 228 66 55 17 105 32 110 33
6 1 16 5 23 9 6 5 12 6 12 3 0 -3 15 1 34 9 18 8 36 11 40 8 3 -4 6 -1 6 5 0
6 6 9 14 6 8 -3 17 0 21 5 3 6 11 9 16 6 5 -4 9 -2 9 3 0 5 10 8 23 7 12 -1
25 2 28 7 3 5 20 10 37 11 18 1 32 5 32 9 0 3 18 9 40 13 22 4 40 11 40 16 0
6 4 8 9 5 5 -3 37 3 72 15 35 11 71 22 79 24 8 2 51 15 94 29 44 14 83 23 88
20 4 -3 8 -1 8 4 0 5 15 13 33 17 36 9 46 12 50 15 1 1 9 3 17 5 8 1 38 9 65
17 28 8 55 14 60 12 6 -1 50 -14 99 -29 49 -15 94 -28 100 -30 6 -1 18 -5 26
-8 8 -3 49 -16 90 -29 41 -13 77 -26 78 -31 2 -4 7 -5 11 -3 9 6 203 -52 215
-64 4 -4 15 -6 23 -3 8 3 24 1 36 -5 24 -11 96 -35 112 -37 6 -1 17 -4 25 -8
8 -3 53 -18 100 -31 158 -46 195 -57 210 -63 20 -8 21 -9 55 -17 17 -4 48 -14
70 -21 22 -8 49 -16 60 -18 11 -2 27 -7 35 -10 13 -4 63 -18 80 -21 3 -1 10
-4 15 -8 6 -3 27 -9 48 -13 20 -4 40 -11 43 -16 3 -5 16 -9 29 -9 13 0 26 -4
30 -9 3 -6 14 -8 25 -6 11 2 20 0 20 -4 0 -5 15 -12 33 -16 17 -4 38 -9 45
-11 6 -2 18 -5 25 -7 6 -1 18 -6 25 -10 6 -5 12 -7 13 -5 11 44 11 47 6 151
-2 43 1 80 5 83 5 3 5 11 1 17 -4 7 -8 62 -10 122 -3 141 -2 135 -35 135 -15
0 -28 4 -28 8 0 5 -6 9 -14 9 -14 0 -100 21 -126 31 -8 3 -18 6 -22 7 -5 2 -9
3 -10 5 -5 3 -43 12 -60 13 -10 1 -18 5 -18 9 0 4 -3 7 -7 7 -5 -1 -10 0 -13
1 -5 2 -29 7 -52 13 -7 1 -17 5 -23 8 -9 6 -61 20 -67 19 -2 0 -43 13 -93 30
-49 17 -91 30 -92 30 -2 0 -4 0 -5 1 -2 0 -11 2 -20 5 -30 7 -42 11 -58 17 -8
4 -24 8 -35 10 -11 2 -27 7 -35 10 -19 8 -187 57 -217 64 -13 3 -23 8 -23 12
0 4 -8 7 -17 8 -44 3 -63 8 -63 15 0 4 -11 8 -24 8 -14 0 -27 4 -31 10 -3 5
-12 7 -19 4 -7 -3 -21 2 -30 11 -9 9 -16 12 -16 6 0 -10 -14 -6 -75 20 -11 5
-29 11 -40 12 -11 2 -27 7 -35 10 -20 8 -180 56 -205 62 -33 7 -139 44 -155
53 -8 5 -28 5 -45 0z"/>
<path d="M269 1217 c-3 -418 -3 -399 16 -413 11 -8 27 -14 37 -14 10 0 20 0
23 0 3 0 25 -9 51 -20 25 -11 56 -20 69 -20 13 0 26 -4 29 -9 3 -4 20 -12 38
-16 18 -4 39 -9 46 -11 6 -2 18 -6 25 -7 6 -2 20 -7 29 -12 10 -4 29 -8 43 -9
14 0 25 -4 25 -8 0 -5 11 -8 25 -8 14 0 25 -5 25 -11 0 -6 6 -9 13 -6 7 3 29
-2 48 -10 18 -9 41 -16 49 -17 13 -1 102 -27 150 -44 8 -3 20 -6 27 -8 20 -4
87 -25 108 -34 16 -6 86 -28 118 -36 4 -1 8 -3 10 -4 1 -1 12 -4 25 -5 13 -1
33 -7 45 -13 20 -9 158 -52 182 -56 6 -1 15 -4 20 -7 6 -4 35 -12 65 -19 30
-7 69 -19 85 -26 17 -7 35 -13 40 -14 16 -4 27 -7 104 -30 40 -12 78 -23 85
-24 6 -1 16 -4 21 -8 6 -3 27 -9 48 -13 20 -4 37 -11 37 -17 0 -5 4 -7 10 -3
5 3 25 -1 45 -9 19 -8 35 -12 35 -9 0 3 6 1 13 -5 14 -11 52 -9 87 5 14 6 28
9 33 6 4 -2 7 0 7 6 0 6 7 8 15 5 8 -4 15 -1 15 6 0 6 5 8 10 5 6 -4 18 -1 27
7 9 7 17 11 17 9 1 -2 35 7 76 20 88 26 97 29 128 34 13 2 29 9 37 15 8 7 15
9 15 5 0 -4 6 -2 13 4 8 6 17 8 20 4 4 -3 7 -1 7 6 0 7 5 9 10 6 6 -3 16 -3
23 2 6 4 19 8 27 8 8 0 20 3 25 6 6 3 33 12 60 19 28 7 56 17 63 23 6 5 12 7
12 4 0 -4 18 0 41 8 23 8 45 12 50 9 5 -3 9 -1 9 3 0 5 10 9 22 10 11 1 24 6
27 10 3 4 12 9 19 11 7 1 20 4 30 6 9 1 24 6 32 9 23 8 134 40 145 41 6 1 12
4 15 8 3 4 17 8 30 10 14 2 30 6 35 9 6 4 24 10 40 14 17 5 35 9 40 11 6 2 60
18 120 36 61 17 112 34 115 37 3 4 14 7 25 9 11 2 27 6 35 9 8 3 26 8 40 10
14 2 27 8 28 14 2 5 7 7 11 5 4 -3 30 2 57 11 27 8 56 16 64 18 23 4 54 18 61
27 3 5 5 31 4 58 -1 28 2 50 7 50 5 0 6 5 2 11 -10 17 -12 109 -1 109 4 0 5 6
0 13 -11 18 -12 36 -2 43 5 3 7 9 4 14 -11 18 -14 90 -4 90 6 0 7 5 2 13 -4 6
-8 21 -9 32 -3 55 -4 57 -21 50 -10 -4 -26 -8 -35 -10 -9 -2 -26 -9 -37 -15
-12 -6 -21 -8 -21 -4 0 3 -7 1 -15 -6 -8 -7 -15 -9 -15 -6 0 4 -9 2 -21 -4
-11 -6 -30 -13 -41 -15 -11 -3 -39 -11 -62 -19 -22 -8 -88 -30 -146 -47 -123
-38 -121 -37 -140 -41 -8 -2 -21 -7 -27 -11 -7 -5 -17 -5 -23 -2 -5 3 -10 1
-10 -4 0 -6 -8 -11 -17 -11 -10 0 -61 -14 -113 -31 -52 -17 -102 -33 -110 -34
-8 -2 -35 -11 -59 -19 -24 -9 -54 -16 -67 -16 -13 0 -24 -4 -24 -9 0 -8 -70
-25 -86 -21 -4 1 -10 -2 -13 -7 -6 -8 -112 -42 -176 -56 -5 -2 -15 -5 -20 -9
-6 -3 -28 -9 -50 -13 -22 -4 -44 -11 -50 -15 -5 -4 -36 -13 -67 -20 -32 -7
-58 -16 -58 -19 0 -4 -8 -8 -17 -9 -22 -2 -58 -10 -58 -12 0 -1 -7 -3 -15 -5
-8 -2 -24 -6 -35 -9 -124 -34 -140 -37 -174 -30 -41 9 -49 11 -56 14 -3 1 -8
3 -12 4 -5 2 -28 9 -53 16 -25 7 -47 14 -50 15 -3 0 -21 6 -40 12 -19 6 -55
16 -80 24 -25 7 -49 15 -55 19 -5 3 -17 6 -25 5 -8 -1 -24 3 -34 8 -10 5 -46
17 -80 27 -34 10 -101 30 -151 45 -49 15 -94 28 -100 29 -5 2 -17 6 -25 9 -8
4 -55 18 -105 33 -49 14 -119 35 -155 46 -36 11 -78 23 -95 28 -56 15 -210 62
-230 71 -24 9 -57 19 -68 19 -4 0 -23 7 -43 15 -20 8 -46 17 -58 19 -11 2 -34
10 -51 17 -16 7 -33 12 -37 11 -3 -1 -33 8 -65 19 -32 11 -65 22 -73 24 -8 2
-16 4 -17 5 -2 2 -7 4 -13 5 -5 1 -13 4 -17 5 -5 1 -12 3 -18 5 -5 1 -12 3
-15 4 -36 17 -40 10 -41 -72z"/>
</g>
</svg>
